<svg xmlns="http://www.w3.org/2000/svg" width="156" height="40" viewBox="0 0 156 40" fill="none"><g id="Capa_1" clip-path="url(#clip0_1634_2362)"><path id="Vector" d="M13.9025 18.7479C13.5275 18.5418 11.7279 17.8201 8.5035 16.5683C7.22875 16.1264 6.56888 15.3901 6.56888 14.418C6.56888 13.2546 7.60368 12.3562 9.28335 12.3562C11.173 12.3562 12.8677 13.122 14.3074 14.6242L17.1118 11.2663C15.1772 9.11613 12.6277 8.04102 9.46332 8.04102C7.03379 8.04102 5.06916 8.64484 3.58445 9.8525C2.09974 11.0602 1.36488 12.636 1.36488 14.5359C1.36488 17.0395 2.59464 18.8952 5.11416 20.1176C5.60906 20.3532 6.55388 20.7656 7.94861 21.2811C9.38833 21.8113 10.3032 22.1795 10.6631 22.3709C11.7729 22.8864 12.3578 23.6228 12.3578 24.477C12.3578 25.7582 10.993 26.7744 9.07339 26.7744C6.88382 26.7744 4.54427 25.611 3.05955 23.6669L0.0151367 26.8923C2.11473 29.7641 5.4141 31.2516 9.0284 31.2516C11.6229 31.2516 13.7225 30.6036 15.3272 29.2634C16.9319 27.9232 17.7117 26.2737 17.7117 24.3002C17.7117 21.9144 16.437 20.0587 13.9325 18.7185L13.9025 18.7479Z" fill="#2885FF"></path><path id="Vector_2" d="M31.599 8.23242C28.1796 8.23242 25.3902 9.32226 23.2006 11.5019C21.056 13.6522 19.9912 16.3915 19.9912 19.7052C19.9912 25.5226 23.6955 31.1779 32.0939 31.1779C35.7982 31.1779 39.0525 30.1765 41.797 28.1441L39.6524 24.3885C37.4629 25.8907 35.0033 26.6566 32.2888 26.6566C28.4646 26.6566 26.155 24.6242 25.4502 21.605H42.4869C42.6069 20.633 42.6519 19.8672 42.6519 19.2633C42.6519 15.8613 41.6171 13.1956 39.5325 11.2221C37.4629 9.24862 34.8384 8.23242 31.599 8.23242ZM25.4502 17.6139C26.155 14.5358 28.4496 12.636 31.584 12.636C34.7184 12.636 36.938 14.5358 37.3879 17.6139H25.4502Z" fill="#2885FF"></path><path id="Vector_3" d="M55.0845 8.23242C51.7402 8.23242 48.7108 9.08662 45.9513 10.7803L47.9759 14.6978C50.1655 13.446 52.4601 12.8421 54.8896 12.8421C58.174 12.8421 59.9586 14.256 60.2436 17.0542C59.7487 17.0984 57.979 17.172 54.8896 17.2604C48.7558 17.3046 45.0215 19.8377 45.0215 24.1676C45.0215 28.4975 48.0209 31.281 53.0899 31.281C56.2543 31.281 58.7288 30.2354 60.4085 28.1293V30.7066H65.2676V17.6139C65.2676 10.6625 60.3335 8.23242 55.0995 8.23242H55.0845ZM53.9298 26.9511C51.6652 26.9511 50.2255 25.8613 50.2255 24.0793C50.2255 21.8112 52.1151 21.2516 56.1044 21.2074C57.6341 21.2074 58.9538 21.1632 60.1386 21.0454C59.8536 24.4769 57.3341 26.9511 53.9298 26.9511Z" fill="#2885FF"></path><path id="Vector_4" d="M86.6233 11.3841C84.7787 9.27808 82.3792 8.23242 79.5447 8.23242C76.3353 8.23242 73.6209 9.27808 71.4313 11.4283C69.2567 13.5343 68.1919 16.2295 68.1919 19.5137C68.1919 22.798 69.2117 25.4195 71.3113 27.555C73.4109 29.7052 76.0804 30.7508 79.3348 30.7508C82.2592 30.7508 84.6437 29.7346 86.4434 27.7611V29.0572C86.4434 32.8127 83.7739 35.4342 79.2148 35.4342C77.1902 35.4342 75.2255 34.9776 73.3059 34.0203L71.2813 38.1293C73.7258 39.3812 76.4103 39.9997 79.3348 39.9997C82.9941 39.9997 85.9485 38.9541 88.228 36.8922C90.4926 34.8304 91.6474 32.0469 91.6474 28.527V8.76261H86.6233V11.3841ZM84.7787 24.2854C83.5489 25.5373 81.9742 26.1411 80.1296 26.1411C78.285 26.1411 76.6653 25.5373 75.4355 24.2854C74.2057 23.0336 73.5759 21.4578 73.5759 19.5579C73.5759 17.658 74.1907 16.1264 75.4355 14.904C76.6653 13.6522 78.24 13.0483 80.1296 13.0483C82.0192 13.0483 83.5489 13.6522 84.7787 14.904C86.0085 16.1117 86.6233 17.658 86.6233 19.5579C86.6233 21.4578 86.0085 23.0336 84.7787 24.2854Z" fill="#2885FF"></path><path id="Vector_5" d="M109.914 21.5324C109.914 24.478 108.144 26.422 105.175 26.422C102.205 26.422 100.481 24.4927 100.481 21.5324V8.76367H95.0815V21.5324C95.0815 27.6297 98.9508 31.2232 105.16 31.2232C111.368 31.2232 115.283 27.6297 115.283 21.5324V8.76367H109.884V21.5324H109.914Z" fill="#2885FF"></path><path id="Vector_6" d="M134.299 24.1974V0H128.945V24.2857C128.945 27.5258 130.985 30.3093 133.849 31.4433C134.764 31.8115 135.754 32.0029 136.804 32.0029H137.224V26.8778H137.044C135.529 26.8778 134.299 25.6701 134.299 24.1826V24.1974Z" fill="#2885FF"></path><path id="Vector_7" d="M124.131 24.1974V0H118.777V24.2857C118.777 27.5258 120.817 30.3093 123.681 31.4433C124.596 31.8115 125.586 32.0029 126.636 32.0029H127.056V26.8778H126.876C125.361 26.8778 124.131 25.6701 124.131 24.1826V24.1974Z" fill="#2885FF"></path><path id="Vector_8" d="M152.221 18.7479C151.846 18.5417 150.046 17.8201 146.837 16.5683C145.562 16.1264 144.902 15.3901 144.902 14.418C144.902 13.2546 145.922 12.3562 147.617 12.3562C149.506 12.3562 151.201 13.122 152.626 14.6242L155.43 11.2663C153.495 9.11613 150.946 8.04102 147.781 8.04102C145.352 8.04102 143.387 8.64484 141.903 9.8525C140.418 11.0602 139.683 12.636 139.683 14.5359C139.683 17.0395 140.913 18.8952 143.417 20.1176C143.912 20.3532 144.857 20.7656 146.267 21.2811C147.706 21.8113 148.606 22.1795 148.981 22.3709C150.091 22.8864 150.661 23.6228 150.661 24.4769C150.661 25.7582 149.296 26.7744 147.377 26.7744C145.307 26.7744 143.087 25.7288 141.603 23.9615L138.678 27.3488C140.778 29.9261 143.912 31.2663 147.332 31.2663C149.911 31.2663 152.026 30.6183 153.63 29.2781C155.235 27.9379 156.015 26.2884 156.015 24.3149C156.015 21.9291 154.74 20.0734 152.236 18.7332L152.221 18.7479Z" fill="#2885FF"></path></g><defs><clipPath id="clip0_1634_2362"><rect width="156" height="40" fill="white"></rect></clipPath></defs></svg>